<svg viewBox="0 0 32 32" fill="none" xmlns="http://www.w3.org/2000/svg">
  <defs>
    <linearGradient id="brand" x1="4" y1="2" x2="28" y2="30" gradientUnits="userSpaceOnUse">
      <stop stop-color="#B4235C"/>
      <stop offset="1" stop-color="#6E4B8E"/>
    </linearGradient>
  </defs>
  <rect width="32" height="32" rx="8" fill="url(#brand)"/>
  <path d="M11.2 10.2c-2.4 1.2-3.9 3.5-3.9 6.1 0 3.9 3.2 7.1 7.1 7.1 2.3 0 4.3-1.1 5.6-2.7" stroke="#FFFFFF" stroke-width="1.85" stroke-linecap="round"/>
  <path d="M20.8 21.8c2.4-1.2 3.9-3.5 3.9-6.1 0-3.9-3.2-7.1-7.1-7.1-2.3 0-4.3 1.1-5.6 2.7" stroke="#FFFFFF" stroke-width="1.85" stroke-linecap="round"/>
  <path d="M14.4 13.8c0-1.1 0.9-1.9 1.9-1.9 1.6 0 2.9 1.3 2.9 2.9 0 1.9-1.5 3.4-3.4 3.4-2.3 0-4.1-1.8-4.1-4.1 0-2.7 2.1-4.8 4.8-4.8 3.2 0 5.8 2.6 5.8 5.8" stroke="#FFFFFF" stroke-width="1.4" stroke-linecap="round" opacity="0.85"/>
  <path d="M23.2 8.8l0.55 1.1 1.2 0.18-0.88 0.86 0.2 1.2-1.06-0.56-1.06 0.56 0.2-1.2-0.88-0.86 1.2-0.18z" fill="#FFFFFF"/>
</svg>
